<?xml version="1.0" encoding="UTF-8"?>
<svg version="1.1" xmlns="http://www.w3.org/2000/svg" width="1200" height="1200">
<path d="M0 0 C3.94165757 1.82724691 6.65527567 4.38094837 9.68206787 7.44155884 C10.52636443 8.28329212 10.52636443 8.28329212 11.38771749 9.14203012 C13.27335563 11.02437291 15.15175458 12.91377698 17.03027344 14.80322266 C18.3801704 16.15368372 19.73050783 17.50370463 21.08125305 18.85331726 C24.7486145 22.52010416 28.4097706 26.19303117 32.06986141 29.86707354 C35.89531785 33.70502028 39.72642706 37.5373157 43.5569458 41.37020874 C50.81047493 48.62995763 58.05889013 55.89479039 65.30549169 63.1614536 C73.55541524 71.4337207 81.81100877 79.70031924 90.0670886 87.96644139 C107.05105199 104.97131802 124.02786582 121.9833175 141 139 C145.0095647 137.39141036 147.69977399 134.57405613 150.68206787 131.55844116 C151.24493224 130.99728564 151.80779662 130.43613012 152.38771749 129.85796988 C154.27335563 127.97562709 156.15175458 126.08622302 158.03027344 124.19677734 C159.3801704 122.84631628 160.73050783 121.49629537 162.08125305 120.14668274 C165.7486145 116.47989584 169.4097706 112.80696883 173.06986141 109.13292646 C176.89531785 105.29497972 180.72642706 101.4626843 184.5569458 97.62979126 C191.81047493 90.37004237 199.05889013 83.10520961 206.30549169 75.8385464 C214.55541524 67.5662793 222.81100877 59.29968076 231.0670886 51.03355861 C248.05105199 34.02868198 265.02786582 17.0166825 282 0 C286.02626565 1.61180698 288.72653304 4.45282547 291.72003174 7.47952271 C292.28697966 8.04476178 292.85392759 8.61000086 293.43805575 9.19236839 C295.33751328 11.08853038 297.22973195 12.99175465 299.12207031 14.89501953 C300.48181937 16.25533269 301.84200889 17.61520569 303.2026062 18.97467041 C306.89682621 22.66831585 310.58484098 26.36810178 314.2717905 30.06900263 C318.1252743 33.93497647 321.98441061 37.79529923 325.84295654 41.65621948 C333.14960954 48.96909231 340.45114869 56.28704913 347.75087428 63.6068362 C356.06125631 71.93956153 364.37730811 80.26661851 372.69384623 88.59319901 C389.8022236 105.7224898 406.90345151 122.85890351 424 140 C428.49648318 136.2327186 432.7936613 132.35063609 436.92893982 128.1913147 C437.7587053 127.36283085 437.7587053 127.36283085 438.60523373 126.51760995 C440.43768668 124.68678956 442.26656873 122.8524452 444.09545898 121.01806641 C445.41645681 119.6967862 446.73767547 118.37572677 448.05909729 117.05487061 C451.63105897 113.48319492 455.19993683 109.90845232 458.76825595 106.33313799 C462.5033809 102.59174654 466.24135259 98.85320141 469.97901917 95.11434937 C477.04982142 88.0404435 484.11807146 80.96399317 491.18540102 73.88661802 C499.23421591 65.82661184 507.28588269 57.76945717 515.33778656 49.71253705 C531.89502591 33.14485528 548.44869272 16.57360784 565 0 C569.04294314 1.61497594 571.75332052 4.47973401 574.75799561 7.51748657 C575.32902708 8.0868092 575.90005856 8.65613183 576.48839402 9.24270666 C578.40167094 11.15268786 580.30770932 13.06973231 582.21386719 14.98681641 C583.58346834 16.35698165 584.95350994 17.72670675 586.32395935 19.09602356 C590.04503791 22.81652755 593.75991135 26.54317238 597.4737196 30.27093172 C601.35523074 34.16493267 605.24239416 38.05328277 609.12896729 41.94223022 C616.48874414 49.30822699 623.84340725 56.67930786 631.19625688 64.05221879 C639.56709737 72.44540237 647.94360744 80.83291779 656.32060385 89.21995664 C673.5533952 106.47366157 690.77903721 123.73448951 708 141 C706.38819302 145.02626565 703.54717453 147.72653304 700.52047729 150.72003174 C699.95523822 151.28697966 699.38999914 151.85392759 698.80763161 152.43805575 C696.91146962 154.33751328 695.00824535 156.22973195 693.10498047 158.12207031 C691.74466731 159.48181937 690.38479431 160.84200889 689.02532959 162.2026062 C685.33168415 165.89682621 681.63189822 169.58484098 677.93099737 173.2717905 C674.06502353 177.1252743 670.20470077 180.98441061 666.34378052 184.84295654 C659.03090769 192.14960954 651.71295087 199.45114869 644.3931638 206.75087428 C636.06043847 215.06125631 627.73338149 223.37730811 619.40680099 231.69384623 C602.2775102 248.8022236 585.14109649 265.90345151 568 283 C571.7672814 287.49648318 575.64936391 291.7936613 579.8086853 295.92893982 C580.36100787 296.48211681 580.91333043 297.0352938 581.48239005 297.60523373 C583.31321044 299.43768668 585.1475548 301.26656873 586.98193359 303.09545898 C588.3032138 304.41645681 589.62427323 305.73767547 590.94512939 307.05909729 C594.51680508 310.63105897 598.09154768 314.19993683 601.66686201 317.76825595 C605.40825346 321.5033809 609.14679859 325.24135259 612.88565063 328.97901917 C619.9595565 336.04982142 627.03600683 343.11807146 634.11338198 350.18540102 C642.17338816 358.23421591 650.23054283 366.28588269 658.28746295 374.33778656 C674.85514472 390.89502591 691.42639216 407.44869272 708 424 C706.39141036 428.0095647 703.57405613 430.69977399 700.55844116 433.68206787 C699.99728564 434.24493224 699.43613012 434.80779662 698.85796988 435.38771749 C696.97562709 437.27335563 695.08622302 439.15175458 693.19677734 441.03027344 C691.84631628 442.3801704 690.49629537 443.73050783 689.14668274 445.08125305 C685.47989584 448.7486145 681.80696883 452.4097706 678.13292646 456.06986141 C674.29497972 459.89531785 670.4626843 463.72642706 666.62979126 467.5569458 C659.37004237 474.81047493 652.10520961 482.05889013 644.8385464 489.30549169 C636.5662793 497.55541524 628.29968076 505.81100877 620.03355861 514.0670886 C603.02868198 531.05105199 586.0166825 548.02786582 569 565 C570.60858964 569.0095647 573.42594387 571.69977399 576.44155884 574.68206787 C577.00271436 575.24493224 577.56386988 575.80779662 578.14203012 576.38771749 C580.02437291 578.27335563 581.91377698 580.15175458 583.80322266 582.03027344 C585.15368372 583.3801704 586.50370463 584.73050783 587.85331726 586.08125305 C591.52010416 589.7486145 595.19303117 593.4097706 598.86707354 597.06986141 C602.70502028 600.89531785 606.5373157 604.72642706 610.37020874 608.5569458 C617.62995763 615.81047493 624.89479039 623.05889013 632.1614536 630.30549169 C640.4337207 638.55541524 648.70031924 646.81100877 656.96644139 655.0670886 C673.97131802 672.05105199 690.9833175 689.02786582 708 706 C706.44794905 709.70338854 704.19152199 712.05709023 701.3654232 714.88067245 C700.88868251 715.35972084 700.41194181 715.83876922 699.92075443 716.33233422 C698.31576798 717.94263095 696.70372423 719.54567167 695.09164429 721.14886475 C693.93042191 722.31095898 692.769639 723.4734925 691.60925925 724.63642812 C688.41442326 727.83574557 685.21336859 731.02877761 682.01128864 734.2208426 C678.56119107 737.6623195 675.11685846 741.10955746 671.67182922 744.55610657 C665.7006476 750.52833792 659.72580913 756.49689062 653.74848557 762.46297455 C645.10623861 771.08898136 636.46950634 779.72049229 627.8341188 788.35336533 C613.82431028 802.35879442 599.81003936 816.35974948 585.79296875 830.35791016 C572.17506891 843.95745764 558.559267 857.55909989 544.94628906 871.16357422 C544.10746875 872.00186908 543.26864844 872.84016395 542.40440933 873.70386168 C538.19639221 877.90926877 533.98841637 882.11471718 529.78046107 886.32018614 C494.86004111 921.21986586 459.93238143 956.11229324 425 991 C420.50351682 987.2327186 416.2063387 983.35063609 412.07106018 979.1913147 C411.51788319 978.63899213 410.9647062 978.08666957 410.39476627 977.51760995 C408.56231332 975.68678956 406.73343127 973.8524452 404.90454102 972.01806641 C403.58354319 970.6967862 402.26232453 969.37572677 400.94090271 968.05487061 C397.36894103 964.48319492 393.80006317 960.90845232 390.23174405 957.33313799 C386.4966191 953.59174654 382.75864741 949.85320141 379.02098083 946.11434937 C371.95017858 939.0404435 364.88192854 931.96399317 357.81459898 924.88661802 C349.76578409 916.82661184 341.71411731 908.76945717 333.66221344 900.71253705 C317.10497409 884.14485528 300.55130728 867.57360784 284 851 C279.50351682 854.7672814 275.2063387 858.64936391 271.07106018 862.8086853 C270.2412947 863.63716915 270.2412947 863.63716915 269.39476627 864.48239005 C267.56231332 866.31321044 265.73343127 868.1475548 263.90454102 869.98193359 C262.58354319 871.3032138 261.26232453 872.62427323 259.94090271 873.94512939 C256.36894103 877.51680508 252.80006317 881.09154768 249.23174405 884.66686201 C245.4966191 888.40825346 241.75864741 892.14679859 238.02098083 895.88565063 C230.95017858 902.9595565 223.88192854 910.03600683 216.81459898 917.11338198 C208.76578409 925.17338816 200.71411731 933.23054283 192.66221344 941.28746295 C176.10497409 957.85514472 159.55130728 974.42639216 143 991 C138.97373435 989.38819302 136.27346696 986.54717453 133.27996826 983.52047729 C132.42954637 982.67261868 132.42954637 982.67261868 131.56194425 981.80763161 C129.66248672 979.91146962 127.77026805 978.00824535 125.87792969 976.10498047 C124.51818063 974.74466731 123.15799111 973.38479431 121.7973938 972.02532959 C118.10317379 968.33168415 114.41515902 964.63189822 110.7282095 960.93099737 C106.8747257 957.06502353 103.01558939 953.20470077 99.15704346 949.34378052 C91.85039046 942.03090769 84.54885131 934.71295087 77.24912572 927.3931638 C68.93874369 919.06043847 60.62269189 910.73338149 52.30615377 902.40680099 C35.1977764 885.2775102 18.09654849 868.14109649 1 851 C-5.47770982 856.33627845 -11.36228301 862.22511601 -17.28184509 868.16159058 C-18.42199337 869.30130234 -19.56236155 870.44079415 -20.70292956 871.58008587 C-23.82479443 874.69972148 -26.943544 877.82245514 -30.06178153 880.9457159 C-33.42933765 884.31759889 -36.79979192 887.68658279 -40.16989136 891.05592346 C-46.00456002 896.8900683 -51.83739798 902.72603823 -57.66898918 908.56325912 C-66.10044795 917.00285214 -74.53467351 925.43967565 -82.96957237 933.87583031 C-96.65525636 947.56370178 -110.33870665 961.25380396 -124.02075195 974.9453125 C-137.30994346 988.24368595 -150.60018702 1001.54100652 -163.8918457 1014.83691406 C-164.71143042 1015.65676151 -165.53101514 1016.47660895 -166.37543576 1017.32130025 C-170.4871437 1021.43431325 -174.59887232 1025.54730557 -178.71061122 1029.66028762 C-212.81028086 1063.77032043 -246.90632541 1097.88397509 -281 1132 C-284.97421144 1130.15993177 -287.70711646 1127.56697869 -290.75799561 1124.48251343 C-291.61454282 1123.62852949 -291.61454282 1123.62852949 -292.48839402 1122.75729334 C-294.40167094 1120.84731214 -296.30770932 1118.93026769 -298.21386719 1117.01318359 C-299.58346834 1115.64301835 -300.95350994 1114.27329325 -302.32395935 1112.90397644 C-306.04503791 1109.18347245 -309.75991135 1105.45682762 -313.4737196 1101.72906828 C-317.35523074 1097.83506733 -321.24239416 1093.94671723 -325.12896729 1090.05776978 C-332.48874414 1082.69177301 -339.84340725 1075.32069214 -347.19625688 1067.94778121 C-355.56709737 1059.55459763 -363.94360744 1051.16708221 -372.32060385 1042.78004336 C-389.5533952 1025.52633843 -406.77903721 1008.26551049 -424 991 C-422.38819302 986.97373435 -419.54717453 984.27346696 -416.52047729 981.27996826 C-415.95523822 980.71302034 -415.38999914 980.14607241 -414.80763161 979.56194425 C-412.91146962 977.66248672 -411.00824535 975.77026805 -409.10498047 973.87792969 C-407.74466731 972.51818063 -406.38479431 971.15799111 -405.02532959 969.7973938 C-401.33168415 966.10317379 -397.63189822 962.41515902 -393.93099737 958.7282095 C-390.06502353 954.8747257 -386.20470077 951.01558939 -382.34378052 947.15704346 C-375.03090769 939.85039046 -367.71295087 932.54885131 -360.3931638 925.24912572 C-352.06043847 916.93874369 -343.73338149 908.62269189 -335.40680099 900.30615377 C-318.2775102 883.1977764 -301.14109649 866.09654849 -284 849 C-287.7672814 844.50351682 -291.64936391 840.2063387 -295.8086853 836.07106018 C-296.63716915 835.2412947 -296.63716915 835.2412947 -297.48239005 834.39476627 C-299.31321044 832.56231332 -301.1475548 830.73343127 -302.98193359 828.90454102 C-304.3032138 827.58354319 -305.62427323 826.26232453 -306.94512939 824.94090271 C-310.51680508 821.36894103 -314.09154768 817.80006317 -317.66686201 814.23174405 C-321.40825346 810.4966191 -325.14679859 806.75864741 -328.88565063 803.02098083 C-335.9595565 795.95017858 -343.03600683 788.88192854 -350.11338198 781.81459898 C-358.17338816 773.76578409 -366.23054283 765.71411731 -374.28746295 757.66221344 C-390.85514472 741.10497409 -407.42639216 724.55130728 -424 708 C-422.39141036 703.9904353 -419.57405613 701.30022601 -416.55844116 698.31793213 C-415.71670788 697.47363557 -415.71670788 697.47363557 -414.85796988 696.61228251 C-412.97562709 694.72664437 -411.08622302 692.84824542 -409.19677734 690.96972656 C-407.84631628 689.6198296 -406.49629537 688.26949217 -405.14668274 686.91874695 C-401.47989584 683.2513855 -397.80696883 679.5902294 -394.13292646 675.93013859 C-390.29497972 672.10468215 -386.4626843 668.27357294 -382.62979126 664.4430542 C-375.37004237 657.18952507 -368.10520961 649.94110987 -360.8385464 642.69450831 C-352.5662793 634.44458476 -344.29968076 626.18899123 -336.03355861 617.9329114 C-319.02868198 600.94894801 -302.0166825 583.97213418 -285 567 C-286.60858964 562.9904353 -289.42594387 560.30022601 -292.44155884 557.31793213 C-293.00271436 556.75506776 -293.56386988 556.19220338 -294.14203012 555.61228251 C-296.02437291 553.72664437 -297.91377698 551.84824542 -299.80322266 549.96972656 C-301.15368372 548.6198296 -302.50370463 547.26949217 -303.85331726 545.91874695 C-307.52010416 542.2513855 -311.19303117 538.5902294 -314.86707354 534.93013859 C-318.70502028 531.10468215 -322.5373157 527.27357294 -326.37020874 523.4430542 C-333.62995763 516.18952507 -340.89479039 508.94110987 -348.1614536 501.69450831 C-356.4337207 493.44458476 -364.70031924 485.18899123 -372.96644139 476.9329114 C-389.97131802 459.94894801 -406.9833175 442.97213418 -424 426 C-422.68921269 423.10654875 -421.28873627 421.03900969 -419.04572666 418.79732966 C-418.13163169 417.87649282 -418.13163169 417.87649282 -417.19907016 416.9370532 C-416.52729041 416.27052748 -415.85551066 415.60400176 -415.16337395 414.91727829 C-414.44857256 414.20016922 -413.73377118 413.48306015 -412.99730915 412.7442205 C-410.58252239 410.32410776 -408.16062232 407.91123949 -405.73873901 405.49822998 C-403.9959197 403.75453913 -402.25353969 402.01040911 -400.51156342 400.26587605 C-396.71374355 396.46450721 -392.91282181 392.66628008 -389.10916519 388.87075424 C-383.45326283 383.22690856 -377.80309061 377.57735251 -372.15409237 371.92659744 C-362.65199935 362.42187481 -353.1452527 352.92181968 -343.63586044 343.42440033 C-334.21809015 334.01845726 -324.80238471 324.61045511 -315.38943863 315.19968414 C-314.80453777 314.61492076 -314.21963691 314.03015738 -313.61701178 313.42767389 C-310.64670138 310.45804014 -307.67642791 307.48836945 -304.70616867 304.51868454 C-283.65853317 283.47525174 -262.60626282 262.43646137 -241.55126953 241.40039062 C-221.09449673 220.96198155 -200.63982195 200.52147651 -180.18798828 180.078125 C-179.55775974 179.44815951 -178.9275312 178.81819402 -178.27820482 178.16913867 C-171.94929042 171.84286127 -165.62041869 165.51654117 -159.29157823 159.1901898 C-146.39858177 146.302266 -133.50530046 133.41462718 -120.61184692 120.52716064 C-120.01900518 119.93459348 -119.42616343 119.34202631 -118.81535679 118.73150257 C-79.21500869 79.14956104 -39.60799975 39.57428465 0 0 Z M137.10377443 146.63806295 C136.5687583 147.17890477 136.03374217 147.71974658 135.48251343 148.27697754 C134.9131908 148.84459132 134.34386817 149.4122051 133.75729334 149.99701929 C131.83779656 151.91320395 129.92556663 153.83648316 128.01318359 155.75976562 C126.64387727 157.12963569 125.27413119 158.49906631 123.90397644 159.86808777 C120.17451464 163.5969736 116.45126951 167.33201232 112.72906828 171.06814384 C108.84219541 174.96748366 104.94969226 178.86119452 101.05776978 182.75549316 C93.68376334 190.13572627 86.31487173 197.52104471 78.94778121 204.90818071 C70.5624666 213.31581745 62.17150074 221.71780432 53.78004336 230.11930943 C36.51371063 247.40657105 19.25452604 264.7009546 2 282 C3.60858964 286.0095647 6.42594387 288.69977399 9.44155884 291.68206787 C10.00271436 292.24493224 10.56386988 292.80779662 11.14203012 293.38771749 C13.02437291 295.27335563 14.91377698 297.15175458 16.80322266 299.03027344 C18.15368372 300.3801704 19.50370463 301.73050783 20.85331726 303.08125305 C24.52010416 306.7486145 28.19303117 310.4097706 31.86707354 314.06986141 C35.70502028 317.89531785 39.5373157 321.72642706 43.37020874 325.5569458 C50.62995763 332.81047493 57.89479039 340.05889013 65.1614536 347.30549169 C73.4337207 355.55541524 81.70031924 363.81100877 89.96644139 372.0670886 C106.97131802 389.05105199 123.9833175 406.02786582 141 423 C145.0095647 421.39141036 147.69977399 418.57405613 150.68206787 415.55844116 C151.24493224 414.99728564 151.80779662 414.43613012 152.38771749 413.85796988 C154.27335563 411.97562709 156.15175458 410.08622302 158.03027344 408.19677734 C159.3801704 406.84631628 160.73050783 405.49629537 162.08125305 404.14668274 C165.7486145 400.47989584 169.4097706 396.80696883 173.06986141 393.13292646 C176.89531785 389.29497972 180.72642706 385.4626843 184.5569458 381.62979126 C191.81047493 374.37004237 199.05889013 367.10520961 206.30549169 359.8385464 C214.55541524 351.5662793 222.81100877 343.29968076 231.0670886 335.03355861 C248.05105199 318.02868198 265.02786582 301.0166825 282 284 C280.39127486 279.99520225 277.58110072 277.30160359 274.57189941 274.31793213 C274.01215502 273.75506776 273.45241063 273.19220338 272.87570429 272.61228251 C270.99804361 270.72664165 269.11331147 268.84823348 267.22851562 266.96972656 C265.88131352 265.61981467 264.53453732 264.26947761 263.18815613 262.91874695 C259.52971408 259.25117894 255.86496386 255.58997537 252.1987896 251.93013859 C248.36769434 248.10410013 244.54147351 244.27319213 240.71447754 240.4430542 C234.2886705 234.01360747 227.85865501 227.58839215 221.42626953 221.16552734 C213.98005089 213.73020249 206.54107729 206.28768736 199.10580873 198.84141374 C192.72899759 192.45554084 186.3483149 186.07355601 179.96435118 179.69483352 C176.14821207 175.88181905 172.33345283 172.06745051 168.52217102 168.24958038 C164.94148627 164.66313863 161.35598345 161.08158594 157.76662636 157.50382423 C156.44664506 156.18649797 155.12838222 154.86744734 153.81192589 153.54659843 C152.02188158 151.75113064 150.22585948 149.96187159 148.42810059 148.1741333 C147.90223059 147.64380186 147.3763606 147.11347043 146.83455515 146.56706834 C142.43204366 142.21239544 141.48964724 142.28796625 137.10377443 146.63806295 Z M-145.89622557 429.63806295 C-146.4312417 430.17890477 -146.96625783 430.71974658 -147.51748657 431.27697754 C-148.0868092 431.84459132 -148.65613183 432.4122051 -149.24270666 432.99701929 C-151.16220344 434.91320395 -153.07443337 436.83648316 -154.98681641 438.75976562 C-156.35612273 440.12963569 -157.72586881 441.49906631 -159.09602356 442.86808777 C-162.82548536 446.5969736 -166.54873049 450.33201232 -170.27093172 454.06814384 C-174.15780459 457.96748366 -178.05030774 461.86119452 -181.94223022 465.75549316 C-189.31623666 473.13572627 -196.68512827 480.52104471 -204.05221879 487.90818071 C-212.4375334 496.31581745 -220.82849926 504.71780432 -229.21995664 513.11930943 C-246.48628937 530.40657105 -263.74547396 547.7009546 -281 565 C-279.39141036 569.0095647 -276.57405613 571.69977399 -273.55844116 574.68206787 C-272.99728564 575.24493224 -272.43613012 575.80779662 -271.85796988 576.38771749 C-269.97562709 578.27335563 -268.08622302 580.15175458 -266.19677734 582.03027344 C-264.84631628 583.3801704 -263.49629537 584.73050783 -262.14668274 586.08125305 C-258.47989584 589.7486145 -254.80696883 593.4097706 -251.13292646 597.06986141 C-247.29497972 600.89531785 -243.4626843 604.72642706 -239.62979126 608.5569458 C-232.37004237 615.81047493 -225.10520961 623.05889013 -217.8385464 630.30549169 C-209.5662793 638.55541524 -201.29968076 646.81100877 -193.03355861 655.0670886 C-176.02868198 672.05105199 -159.0166825 689.02786582 -142 706 C-137.9904353 704.39141036 -135.30022601 701.57405613 -132.31793213 698.55844116 C-131.75506776 697.99728564 -131.19220338 697.43613012 -130.61228251 696.85796988 C-128.72664437 694.97562709 -126.84824542 693.08622302 -124.96972656 691.19677734 C-123.6198296 689.84631628 -122.26949217 688.49629537 -120.91874695 687.14668274 C-117.2513855 683.47989584 -113.5902294 679.80696883 -109.93013859 676.13292646 C-106.10468215 672.29497972 -102.27357294 668.4626843 -98.4430542 664.62979126 C-91.18952507 657.37004237 -83.94110987 650.10520961 -76.69450831 642.8385464 C-68.44458476 634.5662793 -60.18899123 626.29968076 -51.9329114 618.03355861 C-34.94894801 601.02868198 -17.97213418 584.0166825 -1 567 C-2.60872514 562.99520225 -5.41889928 560.30160359 -8.42810059 557.31793213 C-8.98784498 556.75506776 -9.54758937 556.19220338 -10.12429571 555.61228251 C-12.00195639 553.72664165 -13.88668853 551.84823348 -15.77148438 549.96972656 C-17.11868648 548.61981467 -18.46546268 547.26947761 -19.81184387 545.91874695 C-23.47028592 542.25117894 -27.13503614 538.58997537 -30.8012104 534.93013859 C-34.63230566 531.10410013 -38.45852649 527.27319213 -42.28552246 523.4430542 C-48.7113295 517.01360747 -55.14134499 510.58839215 -61.57373047 504.16552734 C-69.01994911 496.73020249 -76.45892271 489.28768736 -83.89419127 481.84141374 C-90.27100241 475.45554084 -96.6516851 469.07355601 -103.03564882 462.69483352 C-106.85178793 458.88181905 -110.66654717 455.06745051 -114.47782898 451.24958038 C-118.05851373 447.66313863 -121.64401655 444.08158594 -125.23337364 440.50382423 C-126.55335494 439.18649797 -127.87161778 437.86744734 -129.18807411 436.54659843 C-130.97811842 434.75113064 -132.77414052 432.96187159 -134.57189941 431.1741333 C-135.09776941 430.64380186 -135.6236394 430.11347043 -136.16544485 429.56706834 C-140.56795634 425.21239544 -141.51035276 425.28796625 -145.89622557 429.63806295 Z M137.10377443 429.63806295 C136.5687583 430.17890477 136.03374217 430.71974658 135.48251343 431.27697754 C134.9131908 431.84459132 134.34386817 432.4122051 133.75729334 432.99701929 C131.83779656 434.91320395 129.92556663 436.83648316 128.01318359 438.75976562 C126.64387727 440.12963569 125.27413119 441.49906631 123.90397644 442.86808777 C120.17451464 446.5969736 116.45126951 450.33201232 112.72906828 454.06814384 C108.84219541 457.96748366 104.94969226 461.86119452 101.05776978 465.75549316 C93.68376334 473.13572627 86.31487173 480.52104471 78.94778121 487.90818071 C70.5624666 496.31581745 62.17150074 504.71780432 53.78004336 513.11930943 C36.51371063 530.40657105 19.25452604 547.7009546 2 565 C3.60858964 569.0095647 6.42594387 571.69977399 9.44155884 574.68206787 C10.00271436 575.24493224 10.56386988 575.80779662 11.14203012 576.38771749 C13.02437291 578.27335563 14.91377698 580.15175458 16.80322266 582.03027344 C18.15368372 583.3801704 19.50370463 584.73050783 20.85331726 586.08125305 C24.52010416 589.7486145 28.19303117 593.4097706 31.86707354 597.06986141 C35.70502028 600.89531785 39.5373157 604.72642706 43.37020874 608.5569458 C50.62995763 615.81047493 57.89479039 623.05889013 65.1614536 630.30549169 C73.4337207 638.55541524 81.70031924 646.81100877 89.96644139 655.0670886 C106.97131802 672.05105199 123.9833175 689.02786582 141 706 C145.0095647 704.39141036 147.69977399 701.57405613 150.68206787 698.55844116 C151.24493224 697.99728564 151.80779662 697.43613012 152.38771749 696.85796988 C154.27335563 694.97562709 156.15175458 693.08622302 158.03027344 691.19677734 C159.3801704 689.84631628 160.73050783 688.49629537 162.08125305 687.14668274 C165.7486145 683.47989584 169.4097706 679.80696883 173.06986141 676.13292646 C176.89531785 672.29497972 180.72642706 668.4626843 184.5569458 664.62979126 C191.81047493 657.37004237 199.05889013 650.10520961 206.30549169 642.8385464 C214.55541524 634.5662793 222.81100877 626.29968076 231.0670886 618.03355861 C248.05105199 601.02868198 265.02786582 584.0166825 282 567 C280.39127486 562.99520225 277.58110072 560.30160359 274.57189941 557.31793213 C274.01215502 556.75506776 273.45241063 556.19220338 272.87570429 555.61228251 C270.99804361 553.72664165 269.11331147 551.84823348 267.22851562 549.96972656 C265.88131352 548.61981467 264.53453732 547.26947761 263.18815613 545.91874695 C259.52971408 542.25117894 255.86496386 538.58997537 252.1987896 534.93013859 C248.36769434 531.10410013 244.54147351 527.27319213 240.71447754 523.4430542 C234.2886705 517.01360747 227.85865501 510.58839215 221.42626953 504.16552734 C213.98005089 496.73020249 206.54107729 489.28768736 199.10580873 481.84141374 C192.72899759 475.45554084 186.3483149 469.07355601 179.96435118 462.69483352 C176.14821207 458.88181905 172.33345283 455.06745051 168.52217102 451.24958038 C164.94148627 447.66313863 161.35598345 444.08158594 157.76662636 440.50382423 C156.44664506 439.18649797 155.12838222 437.86744734 153.81192589 436.54659843 C152.02188158 434.75113064 150.22585948 432.96187159 148.42810059 431.1741333 C147.90223059 430.64380186 147.3763606 430.11347043 146.83455515 429.56706834 C142.43204366 425.21239544 141.48964724 425.28796625 137.10377443 429.63806295 Z M420.10377443 429.63806295 C419.5687583 430.17890477 419.03374217 430.71974658 418.48251343 431.27697754 C417.9131908 431.84459132 417.34386817 432.4122051 416.75729334 432.99701929 C414.83779656 434.91320395 412.92556663 436.83648316 411.01318359 438.75976562 C409.64387727 440.12963569 408.27413119 441.49906631 406.90397644 442.86808777 C403.17451464 446.5969736 399.45126951 450.33201232 395.72906828 454.06814384 C391.84219541 457.96748366 387.94969226 461.86119452 384.05776978 465.75549316 C376.68376334 473.13572627 369.31487173 480.52104471 361.94778121 487.90818071 C353.5624666 496.31581745 345.17150074 504.71780432 336.78004336 513.11930943 C319.51371063 530.40657105 302.25452604 547.7009546 285 565 C286.60858964 569.0095647 289.42594387 571.69977399 292.44155884 574.68206787 C293.00271436 575.24493224 293.56386988 575.80779662 294.14203012 576.38771749 C296.02437291 578.27335563 297.91377698 580.15175458 299.80322266 582.03027344 C301.15368372 583.3801704 302.50370463 584.73050783 303.85331726 586.08125305 C307.52010416 589.7486145 311.19303117 593.4097706 314.86707354 597.06986141 C318.70502028 600.89531785 322.5373157 604.72642706 326.37020874 608.5569458 C333.62995763 615.81047493 340.89479039 623.05889013 348.1614536 630.30549169 C356.4337207 638.55541524 364.70031924 646.81100877 372.96644139 655.0670886 C389.97131802 672.05105199 406.9833175 689.02786582 424 706 C428.0095647 704.39141036 430.69977399 701.57405613 433.68206787 698.55844116 C434.24493224 697.99728564 434.80779662 697.43613012 435.38771749 696.85796988 C437.27335563 694.97562709 439.15175458 693.08622302 441.03027344 691.19677734 C442.3801704 689.84631628 443.73050783 688.49629537 445.08125305 687.14668274 C448.7486145 683.47989584 452.4097706 679.80696883 456.06986141 676.13292646 C459.89531785 672.29497972 463.72642706 668.4626843 467.5569458 664.62979126 C474.81047493 657.37004237 482.05889013 650.10520961 489.30549169 642.8385464 C497.55541524 634.5662793 505.81100877 626.29968076 514.0670886 618.03355861 C531.05105199 601.02868198 548.02786582 584.0166825 565 567 C563.39127486 562.99520225 560.58110072 560.30160359 557.57189941 557.31793213 C557.01215502 556.75506776 556.45241063 556.19220338 555.87570429 555.61228251 C553.99804361 553.72664165 552.11331147 551.84823348 550.22851562 549.96972656 C548.88131352 548.61981467 547.53453732 547.26947761 546.18815613 545.91874695 C542.52971408 542.25117894 538.86496386 538.58997537 535.1987896 534.93013859 C531.36769434 531.10410013 527.54147351 527.27319213 523.71447754 523.4430542 C517.2886705 517.01360747 510.85865501 510.58839215 504.42626953 504.16552734 C496.98005089 496.73020249 489.54107729 489.28768736 482.10580873 481.84141374 C475.72899759 475.45554084 469.3483149 469.07355601 462.96435118 462.69483352 C459.14821207 458.88181905 455.33345283 455.06745051 451.52217102 451.24958038 C447.94148627 447.66313863 444.35598345 444.08158594 440.76662636 440.50382423 C439.44664506 439.18649797 438.12838222 437.86744734 436.81192589 436.54659843 C435.02188158 434.75113064 433.22585948 432.96187159 431.42810059 431.1741333 C430.90223059 430.64380186 430.3763606 430.11347043 429.83455515 429.56706834 C425.43204366 425.21239544 424.48964724 425.28796625 420.10377443 429.63806295 Z " fill="#FF84BD" transform="translate(458,34)"/>
<path d="M0 0 C3.94954656 1.83145449 6.68339356 4.39526505 9.72676086 7.4526062 C10.29441436 8.01502301 10.86206785 8.57743983 11.44692296 9.15689957 C13.34872158 11.04369 15.2432972 12.93756848 17.13793945 14.83154297 C18.49934827 16.18533117 19.86115937 17.53871494 21.2233429 18.89172363 C24.92214406 22.5685706 28.61434255 26.25197877 32.30472207 29.93727636 C34.60865884 32.2375724 36.91388899 34.53656413 39.21956444 36.83511734 C47.2573266 44.84838735 55.28935398 52.86735979 63.31665039 60.89111328 C70.80982307 68.380645 78.31604136 75.85692697 85.82827598 83.32733428 C92.27110014 89.7355342 98.7043373 96.15325316 105.13022202 102.57843888 C108.97123992 106.41866164 112.81618008 110.25475399 116.67095375 114.08117294 C120.29262248 117.6767941 123.90228239 121.28404128 127.502882 124.90075684 C128.82928726 126.22898687 130.16001197 127.55291881 131.49523163 128.87228775 C133.31126944 130.66806653 135.11137893 132.47840841 136.90815735 134.29342651 C137.71386019 135.0793294 137.71386019 135.0793294 138.53583986 135.88110912 C141.95232568 139.37785903 141.95232568 139.37785903 142.15319443 141.99915886 C140.4221002 145.00268062 138.0924716 147.30841004 135.64073181 149.72003174 C135.07634716 150.28697966 134.51196251 150.85392759 133.93047529 151.43805575 C132.03354742 153.33993323 130.12608023 155.23087581 128.21850586 157.12207031 C126.85812552 158.48160463 125.49840504 159.8417995 124.13929749 161.2026062 C120.44368371 164.89908234 116.73887891 168.58622205 113.03239131 172.2717905 C109.16196378 176.12349162 105.30000405 179.9836637 101.43714905 183.84295654 C94.11915278 191.15162048 86.79354127 198.45260208 79.46518284 205.75087428 C71.12326238 214.05928772 62.78983699 222.37619941 54.45712459 230.69384623 C37.31420495 247.80538994 20.16061127 264.9062 3 282 C4.60596295 286.00966694 7.4245012 288.68426795 10.44828796 291.65515137 C11.01014905 292.21519348 11.57201014 292.77523559 12.15089732 293.35224867 C14.03560958 295.22854413 15.92735741 297.09758355 17.8190918 298.96679688 C19.17121006 300.31016626 20.52285263 301.6540146 21.87405396 302.99830627 C24.78465207 305.89241098 27.69817659 308.7835262 30.61386681 311.67250061 C35.22013979 316.23746117 39.81721674 320.81160558 44.41255188 325.38757324 C57.48102804 338.39842389 70.55946158 351.39920837 83.65258789 364.38525391 C90.88355143 371.55723729 98.10560758 378.73806645 105.31791431 385.9288125 C109.88772879 390.48394716 114.46842972 395.02775626 119.05730665 399.56368256 C121.90371581 402.38244369 124.73967473 405.21153522 127.57269669 408.04374504 C128.89264303 409.35910486 130.21691591 410.67013877 131.54569054 411.97657967 C133.35301743 413.75473796 135.14447336 415.5474771 136.93266296 417.34484863 C137.46727148 417.8635287 138.00188 418.38220878 138.55268878 418.91660643 C141.95283728 422.37931932 141.95283728 422.37931932 142.15166283 424.99594498 C140.4237187 428.00281038 138.09324096 430.30765328 135.64073181 432.72003174 C135.07634716 433.28697966 134.51196251 433.85392759 133.93047529 434.43805575 C132.03354742 436.33993323 130.12608023 438.23087581 128.21850586 440.12207031 C126.85812552 441.48160463 125.49840504 442.8417995 124.13929749 444.2026062 C120.44368371 447.89908234 116.73887891 451.58622205 113.03239131 455.2717905 C109.16196378 459.12349162 105.30000405 462.9836637 101.43714905 466.84295654 C94.11915278 474.15162048 86.79354127 481.45260208 79.46518284 488.75087428 C71.12326238 497.05928772 62.78983699 505.37619941 54.45712459 513.69384623 C37.31420495 530.80538994 20.16061127 547.9062 3 565 C4.60858964 569.0095647 7.42594387 571.69977399 10.44155884 574.68206787 C11.00271436 575.24493224 11.56386988 575.80779662 12.14203012 576.38771749 C14.02437291 578.27335563 15.91377698 580.15175458 17.80322266 582.03027344 C19.15368372 583.3801704 20.50370463 584.73050783 21.85331726 586.08125305 C25.52010416 589.7486145 29.19303117 593.4097706 32.86707354 597.06986141 C36.70502028 600.89531785 40.5373157 604.72642706 44.37020874 608.5569458 C51.62995763 615.81047493 58.89479039 623.05889013 66.1614536 630.30549169 C74.4337207 638.55541524 82.70031924 646.81100877 90.96644139 655.0670886 C107.97131802 672.05105199 124.9833175 689.02786582 142 706 C140.39283005 710.00497458 137.58176981 712.68927757 134.56758118 715.66619873 C134.00728106 716.22750213 133.44698095 716.78880553 132.86970204 717.36711812 C130.98987047 719.24790272 129.10298222 721.12144398 127.21606445 722.99511719 C125.8671019 724.34187855 124.51858676 725.68908819 123.17048645 727.03671265 C120.26504851 729.93921558 117.35647943 732.83853117 114.44545937 735.73543549 C109.83865162 740.31997801 105.23894119 744.91159695 100.6401825 749.50421143 C93.36022158 756.77278441 86.07560685 764.03667272 78.78895682 771.2985394 C65.75516171 784.28807042 52.72684319 797.28308833 39.70382661 810.28342557 C35.13557209 814.84329399 30.56452374 819.4003375 25.99117911 823.95510054 C23.13876632 826.79682723 20.28841857 829.64061868 17.43856621 832.48491287 C16.1217198 833.79830512 14.8040033 835.11082568 13.48532867 836.42238235 C11.6769728 838.2211963 9.87181161 840.02316041 8.06733704 841.8258667 C7.29454193 842.59224618 7.29454193 842.59224618 6.50613481 843.37410808 C3.83152748 846.05282235 1.29147591 848.7960717 -1.1717205 851.67087936 C-5.95426516 857.18565912 -11.15402839 862.28898726 -16.31980896 867.44006348 C-17.4645085 868.58519969 -18.60898802 869.73055587 -19.75326782 870.87611151 C-22.88204721 874.00711704 -26.01391937 877.13501256 -29.14632452 880.26239014 C-32.52978058 883.6415148 -35.91033287 887.02354232 -39.29124451 890.4052124 C-45.14392447 896.25841589 -50.99842788 902.10979034 -56.8541851 907.95991516 C-65.32055315 916.41814508 -73.78414801 924.87914548 -82.24707557 933.34081763 C-95.97876016 947.07031535 -109.71267495 960.7975799 -123.44799805 974.5234375 C-136.78803895 987.85429488 -150.12702581 1001.1862055 -163.46459961 1014.51953125 C-164.69845718 1015.75299474 -164.69845718 1015.75299474 -165.95724117 1017.01137668 C-170.08396761 1021.13679805 -174.21067337 1025.26224011 -178.33736885 1029.38769245 C-212.5550403 1063.59500262 -246.77633372 1097.7986876 -281 1132 C-284.97421144 1130.15993177 -287.70711646 1127.56697869 -290.75799561 1124.48251343 C-291.61454282 1123.62852949 -291.61454282 1123.62852949 -292.48839402 1122.75729334 C-294.40167094 1120.84731214 -296.30770932 1118.93026769 -298.21386719 1117.01318359 C-299.58346834 1115.64301835 -300.95350994 1114.27329325 -302.32395935 1112.90397644 C-306.04503791 1109.18347245 -309.75991135 1105.45682762 -313.4737196 1101.72906828 C-317.35523074 1097.83506733 -321.24239416 1093.94671723 -325.12896729 1090.05776978 C-332.48874414 1082.69177301 -339.84340725 1075.32069214 -347.19625688 1067.94778121 C-355.56709737 1059.55459763 -363.94360744 1051.16708221 -372.32060385 1042.78004336 C-389.5533952 1025.52633843 -406.77903721 1008.26551049 -424 991 C-422.38819302 986.97373435 -419.54717453 984.27346696 -416.52047729 981.27996826 C-415.95523822 980.71302034 -415.38999914 980.14607241 -414.80763161 979.56194425 C-412.91146962 977.66248672 -411.00824535 975.77026805 -409.10498047 973.87792969 C-407.74466731 972.51818063 -406.38479431 971.15799111 -405.02532959 969.7973938 C-401.33168415 966.10317379 -397.63189822 962.41515902 -393.93099737 958.7282095 C-390.06502353 954.8747257 -386.20470077 951.01558939 -382.34378052 947.15704346 C-375.03090769 939.85039046 -367.71295087 932.54885131 -360.3931638 925.24912572 C-352.06043847 916.93874369 -343.73338149 908.62269189 -335.40680099 900.30615377 C-318.2775102 883.1977764 -301.14109649 866.09654849 -284 849 C-287.7672814 844.50351682 -291.64936391 840.2063387 -295.8086853 836.07106018 C-296.63716915 835.2412947 -296.63716915 835.2412947 -297.48239005 834.39476627 C-299.31321044 832.56231332 -301.1475548 830.73343127 -302.98193359 828.90454102 C-304.3032138 827.58354319 -305.62427323 826.26232453 -306.94512939 824.94090271 C-310.51680508 821.36894103 -314.09154768 817.80006317 -317.66686201 814.23174405 C-321.40825346 810.4966191 -325.14679859 806.75864741 -328.88565063 803.02098083 C-335.9595565 795.95017858 -343.03600683 788.88192854 -350.11338198 781.81459898 C-358.17338816 773.76578409 -366.23054283 765.71411731 -374.28746295 757.66221344 C-390.85514472 741.10497409 -407.42639216 724.55130728 -424 708 C-422.39141036 703.9904353 -419.57405613 701.30022601 -416.55844116 698.31793213 C-415.71670788 697.47363557 -415.71670788 697.47363557 -414.85796988 696.61228251 C-412.97562709 694.72664437 -411.08622302 692.84824542 -409.19677734 690.96972656 C-407.84631628 689.6198296 -406.49629537 688.26949217 -405.14668274 686.91874695 C-401.47989584 683.2513855 -397.80696883 679.5902294 -394.13292646 675.93013859 C-390.29497972 672.10468215 -386.4626843 668.27357294 -382.62979126 664.4430542 C-375.37004237 657.18952507 -368.10520961 649.94110987 -360.8385464 642.69450831 C-352.5662793 634.44458476 -344.29968076 626.18899123 -336.03355861 617.9329114 C-319.02868198 600.94894801 -302.0166825 583.97213418 -285 567 C-286.60858964 562.9904353 -289.42594387 560.30022601 -292.44155884 557.31793213 C-293.00271436 556.75506776 -293.56386988 556.19220338 -294.14203012 555.61228251 C-296.02437291 553.72664437 -297.91377698 551.84824542 -299.80322266 549.96972656 C-301.15368372 548.6198296 -302.50370463 547.26949217 -303.85331726 545.91874695 C-307.52010416 542.2513855 -311.19303117 538.5902294 -314.86707354 534.93013859 C-318.70502028 531.10468215 -322.5373157 527.27357294 -326.37020874 523.4430542 C-333.62995763 516.18952507 -340.89479039 508.94110987 -348.1614536 501.69450831 C-356.4337207 493.44458476 -364.70031924 485.18899123 -372.96644139 476.9329114 C-389.97131802 459.94894801 -406.9833175 442.97213418 -424 426 C-422.68921269 423.10654875 -421.28873627 421.03900969 -419.04572666 418.79732966 C-418.13163169 417.87649282 -418.13163169 417.87649282 -417.19907016 416.9370532 C-416.52729041 416.27052748 -415.85551066 415.60400176 -415.16337395 414.91727829 C-414.44857256 414.20016922 -413.73377118 413.48306015 -412.99730915 412.7442205 C-410.58252239 410.32410776 -408.16062232 407.91123949 -405.73873901 405.49822998 C-403.9959197 403.75453913 -402.25353969 402.01040911 -400.51156342 400.26587605 C-396.71374355 396.46450721 -392.91282181 392.66628008 -389.10916519 388.87075424 C-383.45326283 383.22690856 -377.80309061 377.57735251 -372.15409237 371.92659744 C-362.65199935 362.42187481 -353.1452527 352.92181968 -343.63586044 343.42440033 C-334.21809015 334.01845726 -324.80238471 324.61045511 -315.38943863 315.19968414 C-314.80453777 314.61492076 -314.21963691 314.03015738 -313.61701178 313.42767389 C-310.64670138 310.45804014 -307.67642791 307.48836945 -304.70616867 304.51868454 C-283.65853317 283.47525174 -262.60626282 262.43646137 -241.55126953 241.40039062 C-221.09449673 220.96198155 -200.63982195 200.52147651 -180.18798828 180.078125 C-179.55775974 179.44815951 -178.9275312 178.81819402 -178.27820482 178.16913867 C-171.94929042 171.84286127 -165.62041869 165.51654117 -159.29157823 159.1901898 C-146.39858177 146.302266 -133.50530046 133.41462718 -120.61184692 120.52716064 C-120.01900518 119.93459348 -119.42616343 119.34202631 -118.81535679 118.73150257 C-79.21500869 79.14956104 -39.60799975 39.57428465 0 0 Z M-145.89622557 429.63806295 C-146.4312417 430.17890477 -146.96625783 430.71974658 -147.51748657 431.27697754 C-148.0868092 431.84459132 -148.65613183 432.4122051 -149.24270666 432.99701929 C-151.16220344 434.91320395 -153.07443337 436.83648316 -154.98681641 438.75976562 C-156.35612273 440.12963569 -157.72586881 441.49906631 -159.09602356 442.86808777 C-162.82548536 446.5969736 -166.54873049 450.33201232 -170.27093172 454.06814384 C-174.15780459 457.96748366 -178.05030774 461.86119452 -181.94223022 465.75549316 C-189.31623666 473.13572627 -196.68512827 480.52104471 -204.05221879 487.90818071 C-212.4375334 496.31581745 -220.82849926 504.71780432 -229.21995664 513.11930943 C-246.48628937 530.40657105 -263.74547396 547.7009546 -281 565 C-279.39141036 569.0095647 -276.57405613 571.69977399 -273.55844116 574.68206787 C-272.99728564 575.24493224 -272.43613012 575.80779662 -271.85796988 576.38771749 C-269.97562709 578.27335563 -268.08622302 580.15175458 -266.19677734 582.03027344 C-264.84631628 583.3801704 -263.49629537 584.73050783 -262.14668274 586.08125305 C-258.47989584 589.7486145 -254.80696883 593.4097706 -251.13292646 597.06986141 C-247.29497972 600.89531785 -243.4626843 604.72642706 -239.62979126 608.5569458 C-232.37004237 615.81047493 -225.10520961 623.05889013 -217.8385464 630.30549169 C-209.5662793 638.55541524 -201.29968076 646.81100877 -193.03355861 655.0670886 C-176.02868198 672.05105199 -159.0166825 689.02786582 -142 706 C-137.9904353 704.39141036 -135.30022601 701.57405613 -132.31793213 698.55844116 C-131.75506776 697.99728564 -131.19220338 697.43613012 -130.61228251 696.85796988 C-128.72664437 694.97562709 -126.84824542 693.08622302 -124.96972656 691.19677734 C-123.6198296 689.84631628 -122.26949217 688.49629537 -120.91874695 687.14668274 C-117.2513855 683.47989584 -113.5902294 679.80696883 -109.93013859 676.13292646 C-106.10468215 672.29497972 -102.27357294 668.4626843 -98.4430542 664.62979126 C-91.18952507 657.37004237 -83.94110987 650.10520961 -76.69450831 642.8385464 C-68.44458476 634.5662793 -60.18899123 626.29968076 -51.9329114 618.03355861 C-34.94894801 601.02868198 -17.97213418 584.0166825 -1 567 C-2.60872514 562.99520225 -5.41889928 560.30160359 -8.42810059 557.31793213 C-8.98784498 556.75506776 -9.54758937 556.19220338 -10.12429571 555.61228251 C-12.00195639 553.72664165 -13.88668853 551.84823348 -15.77148438 549.96972656 C-17.11868648 548.61981467 -18.46546268 547.26947761 -19.81184387 545.91874695 C-23.47028592 542.25117894 -27.13503614 538.58997537 -30.8012104 534.93013859 C-34.63230566 531.10410013 -38.45852649 527.27319213 -42.28552246 523.4430542 C-48.7113295 517.01360747 -55.14134499 510.58839215 -61.57373047 504.16552734 C-69.01994911 496.73020249 -76.45892271 489.28768736 -83.89419127 481.84141374 C-90.27100241 475.45554084 -96.6516851 469.07355601 -103.03564882 462.69483352 C-106.85178793 458.88181905 -110.66654717 455.06745051 -114.47782898 451.24958038 C-118.05851373 447.66313863 -121.64401655 444.08158594 -125.23337364 440.50382423 C-126.55335494 439.18649797 -127.87161778 437.86744734 -129.18807411 436.54659843 C-130.97811842 434.75113064 -132.77414052 432.96187159 -134.57189941 431.1741333 C-135.09776941 430.64380186 -135.6236394 430.11347043 -136.16544485 429.56706834 C-140.56795634 425.21239544 -141.51035276 425.28796625 -145.89622557 429.63806295 Z " fill="#5CD850" transform="translate(458,34)"/>
<path d="M0 0 C3.01899313 1.71322511 5.31856215 4.04722875 7.7324667 6.50128937 C8.29941462 7.06567402 8.86636255 7.63005867 9.45049071 8.21154588 C11.35236819 10.10847376 13.24331077 12.01594095 15.13450527 13.92351532 C16.49403959 15.28389566 17.85423446 16.64361614 19.21504116 18.00272369 C22.9115173 21.69833746 26.59865701 25.40314227 30.28422546 29.10962987 C34.13592658 32.9800574 37.99609866 36.84201712 41.8553915 40.70487213 C49.16405544 48.02286839 56.46503704 55.34847991 63.76330924 62.67683834 C72.07172268 71.0187588 80.38863437 79.35218419 88.70628119 87.68489659 C105.8178249 104.82781623 122.91863496 121.98140991 140.01243496 139.14202118 C144.0221019 137.53605823 146.69670291 134.71751998 149.66758633 131.69373322 C150.22762844 131.13187213 150.78767055 130.57001104 151.36468363 129.99112386 C153.24097909 128.10641159 155.11001851 126.21466377 156.97923183 124.32292938 C158.32260122 122.97081111 159.66644956 121.61916855 161.01074123 120.26796722 C163.90484594 117.35736911 166.79596116 114.44384459 169.68493557 111.52815437 C174.24989613 106.92188139 178.82404054 102.32480444 183.4000082 97.7294693 C196.41085885 84.66099314 209.41164333 71.5825596 222.39768887 58.48943329 C229.56967225 51.25846975 236.75050141 44.0364136 243.94124746 36.82410687 C248.49638212 32.25429239 253.04019122 27.67359146 257.57611752 23.08471453 C260.39487865 20.23830537 263.22397018 17.40234645 266.05618 14.56932449 C267.37153982 13.24937815 268.68257373 11.92510527 269.98901463 10.59633064 C271.76717292 8.78900375 273.55991206 6.99754782 275.35728359 5.20935822 C276.1353037 4.40744544 276.1353037 4.40744544 276.92904139 3.5893324 C280.39087565 0.19004665 280.39087565 0.19004665 283.00600719 -0.01201439 C286.02807251 1.72618467 288.34512529 4.07389888 290.77043056 6.53925323 C291.34146204 7.10772144 291.91249352 7.67618964 292.50082898 8.26188415 C294.41652558 10.17263093 296.32128832 12.09391887 298.22630215 14.01531219 C299.59568856 15.38554462 300.96573551 16.7551172 302.33639431 18.12407684 C306.05972889 21.84654904 309.77372741 25.57821295 313.48615456 29.31155896 C317.36588307 33.21001358 321.25408224 37.10000068 325.14140224 40.99088287 C332.50318997 48.36200302 339.85729559 55.74073867 347.20869184 63.12222093 C355.5775638 71.52459963 363.95493374 79.91848349 372.33303881 88.31165421 C389.56899641 105.57898794 406.79422059 122.85699593 424.01243496 140.14202118 C422.46038401 143.84540972 420.20395695 146.1991114 417.37785816 149.02269363 C416.66274712 149.74126621 416.66274712 149.74126621 415.93318939 150.4743554 C414.32820294 152.08465213 412.71615919 153.68769284 411.10407925 155.29088593 C409.94285687 156.45298016 408.78207396 157.61551368 407.62169421 158.7784493 C404.42685822 161.97776675 401.22580355 165.17079879 398.0237236 168.36286378 C394.57362603 171.80434068 391.12929342 175.25157864 387.68426418 178.69812775 C381.71308256 184.6703591 375.73824409 190.6389118 369.76092052 196.60499573 C361.11867357 205.23100254 352.4819413 213.86251347 343.84655376 222.49538651 C329.83674524 236.5008156 315.82247432 250.50177066 301.80540371 264.49993134 C288.18750387 278.09947882 274.57170195 291.70112107 260.95872402 305.3055954 C260.11990371 306.14389026 259.2810834 306.98218512 258.41684429 307.84588286 C254.20882717 312.05128995 250.00085133 316.25673836 245.79289603 320.46220732 C210.87247607 355.36188704 175.94481639 390.25431442 141.01243496 425.14202118 C136.51595178 421.37473978 132.21877366 417.49265727 128.08349514 413.33333588 C127.53031815 412.78101331 126.97714116 412.22869075 126.40720123 411.65963113 C124.57474828 409.82881073 122.74586623 407.99446638 120.91697598 406.16008759 C119.59597815 404.83880738 118.27475948 403.51774795 116.95333767 402.19689178 C113.38137599 398.6252161 109.81249813 395.0504735 106.24417901 391.47515917 C102.50905406 387.73376772 98.77108237 383.99522259 95.03341579 380.25637054 C87.96261354 373.18246468 80.8943635 366.10601435 73.82703394 359.0286392 C65.77821905 350.96863302 57.72655227 342.91147835 49.6746484 334.85455823 C33.11740905 318.28687646 16.56374224 301.71562902 0.01243496 285.14202118 C-4.48404822 288.90930258 -8.78122634 292.79138509 -12.91650486 296.95070648 C-13.46968185 297.50302905 -14.02285884 298.05535161 -14.59279877 298.62441123 C-16.42525172 300.45523162 -18.25413377 302.28957598 -20.08302402 304.12395477 C-21.40402185 305.44523497 -22.72524052 306.76629441 -24.04666233 308.08715057 C-27.61862401 311.65882626 -31.18750187 315.23356886 -34.75582099 318.80888319 C-38.49094594 322.55027464 -42.22891763 326.28881977 -45.96658421 330.02767181 C-53.03738646 337.10157768 -60.1056365 344.17802801 -67.17296606 351.25540316 C-75.22178095 359.31540934 -83.27344773 367.37256401 -91.3253516 375.42948413 C-107.88259095 391.9971659 -124.43625776 408.56841334 -140.98756504 425.14202118 C-145.00492417 423.52925206 -147.71539486 420.70211584 -150.7143259 417.68941498 C-151.56580614 416.84578976 -151.56580614 416.84578976 -152.434488 415.98512161 C-154.33628662 414.09833118 -156.23086224 412.2044527 -158.12550449 410.31047821 C-159.48691331 408.95669001 -160.84872441 407.60330624 -162.21090794 406.25029755 C-165.9097091 402.57345058 -169.60190759 398.89004241 -173.29228711 395.20474482 C-175.59622388 392.90444878 -177.90145403 390.60545704 -180.20712948 388.30690384 C-188.24489164 380.29363383 -196.27691902 372.27466139 -204.30421543 364.2509079 C-211.79738811 356.76137618 -219.3036064 349.28509421 -226.81584102 341.81468689 C-233.25866518 335.40648698 -239.69190234 328.98876802 -246.11778706 322.5635823 C-249.95880496 318.72335954 -253.80374512 314.88726719 -257.65851879 311.06084824 C-261.28018752 307.46522708 -264.88984743 303.8579799 -268.49044704 300.24126434 C-269.8168523 298.91303431 -271.14757701 297.58910237 -272.48279667 296.26973343 C-274.29883448 294.47395465 -276.09894397 292.66361277 -277.89572239 290.84859467 C-278.43285762 290.32465941 -278.96999284 289.80072415 -279.5234049 289.26091206 C-282.94010911 285.76393864 -282.94010911 285.76393864 -283.14018822 283.1418705 C-281.41200663 280.14340331 -279.08655928 277.84370587 -276.63743687 275.43785858 C-276.07390762 274.87247163 -275.51037838 274.30708468 -274.9297725 273.72456479 C-273.03535292 271.82754089 -271.13040278 269.94145623 -269.22535801 268.05510712 C-267.86647644 266.6987084 -266.50826174 265.3416413 -265.15066624 263.98395538 C-262.22267365 261.05867143 -259.28997567 258.13821683 -256.35355854 255.22138977 C-251.70671991 250.60554604 -247.07025261 245.97937857 -242.43510532 241.35179901 C-235.09689522 234.02809224 -227.75150238 226.7116365 -220.40315831 219.39809918 C-207.26018076 206.31692924 -194.12920115 193.22372134 -181.00109494 180.12762856 C-176.39558714 175.53392372 -171.78691733 170.94342169 -167.17555022 166.35559893 C-164.29914097 163.4930744 -161.42476338 160.62851584 -158.55082607 157.76350975 C-157.22270266 156.44043099 -155.89369927 155.11823486 -154.56372738 153.79701424 C-148.8196523 148.09011015 -143.12454207 142.42327487 -137.86988163 136.25716972 C-133.13136332 130.9325234 -127.98592795 125.96454115 -122.95558262 120.91716766 C-121.64068659 119.59435714 -120.32596872 118.27136952 -119.01141453 116.9482193 C-114.72202789 112.63280865 -110.4273597 108.32267511 -106.13209629 104.01311493 C-104.65032077 102.52597512 -103.16855188 101.03882871 -101.68678951 99.5516758 C-95.52858395 93.37188692 -89.36895842 87.19351924 -83.20560265 81.01886654 C-74.37971294 72.17668814 -65.5624622 63.3260888 -56.75685102 54.46371406 C-50.55649807 48.22475478 -44.34667795 41.9953213 -38.12964267 35.77298599 C-34.41778604 32.05746852 -30.71026749 28.33784659 -27.0127821 24.60802269 C-23.54257096 21.10788847 -20.06084974 17.61964143 -16.56973553 14.14035988 C-15.28825808 12.85910436 -14.01108459 11.5735281 -12.73848438 10.2834549 C-11.00646207 8.52894451 -9.25989334 6.79037267 -7.50863743 5.05509186 C-6.75119613 4.27682743 -6.75119613 4.27682743 -5.97845298 3.48284048 C-2.60603722 0.18621402 -2.60603722 0.18621402 0 0 Z " fill="#FDBF00" transform="translate(741.9875650405884,599.8579788208008)"/>
<path d="M0 0 C3.94954656 1.83145449 6.68339356 4.39526505 9.72676086 7.4526062 C10.29441436 8.01502301 10.86206785 8.57743983 11.44692296 9.15689957 C13.34872158 11.04369 15.2432972 12.93756848 17.13793945 14.83154297 C18.49934827 16.18533117 19.86115937 17.53871494 21.2233429 18.89172363 C24.92214406 22.5685706 28.61434255 26.25197877 32.30472207 29.93727636 C34.60865884 32.2375724 36.91388899 34.53656413 39.21956444 36.83511734 C47.2573266 44.84838735 55.28935398 52.86735979 63.31665039 60.89111328 C70.80982307 68.380645 78.31604136 75.85692697 85.82827598 83.32733428 C92.27110014 89.7355342 98.7043373 96.15325316 105.13022202 102.57843888 C108.97123992 106.41866164 112.81618008 110.25475399 116.67095375 114.08117294 C120.29262248 117.6767941 123.90228239 121.28404128 127.502882 124.90075684 C128.82928726 126.22898687 130.16001197 127.55291881 131.49523163 128.87228775 C133.31126944 130.66806653 135.11137893 132.47840841 136.90815735 134.29342651 C137.71386019 135.0793294 137.71386019 135.0793294 138.53583986 135.88110912 C141.95232568 139.37785903 141.95232568 139.37785903 142.15319443 141.99915886 C140.4221002 145.00268062 138.0924716 147.30841004 135.64073181 149.72003174 C135.07634716 150.28697966 134.51196251 150.85392759 133.93047529 151.43805575 C132.03354742 153.33993323 130.12608023 155.23087581 128.21850586 157.12207031 C126.85812552 158.48160463 125.49840504 159.8417995 124.13929749 161.2026062 C120.44368371 164.89908234 116.73887891 168.58622205 113.03239131 172.2717905 C109.16196378 176.12349162 105.30000405 179.9836637 101.43714905 183.84295654 C94.11915278 191.15162048 86.79354127 198.45260208 79.46518284 205.75087428 C71.12326238 214.05928772 62.78983699 222.37619941 54.45712459 230.69384623 C37.31420495 247.80538994 20.16061127 264.9062 3 282 C4.60596295 286.00966694 7.4245012 288.68426795 10.44828796 291.65515137 C11.01014905 292.21519348 11.57201014 292.77523559 12.15089732 293.35224867 C14.03560958 295.22854413 15.92735741 297.09758355 17.8190918 298.96679688 C19.17121006 300.31016626 20.52285263 301.6540146 21.87405396 302.99830627 C24.78465207 305.89241098 27.69817659 308.7835262 30.61386681 311.67250061 C35.22013979 316.23746117 39.81721674 320.81160558 44.41255188 325.38757324 C57.48102804 338.39842389 70.55946158 351.39920837 83.65258789 364.38525391 C90.88355143 371.55723729 98.10560758 378.73806645 105.31791431 385.9288125 C109.88772879 390.48394716 114.46842972 395.02775626 119.05730665 399.56368256 C121.90371581 402.38244369 124.73967473 405.21153522 127.57269669 408.04374504 C128.89264303 409.35910486 130.21691591 410.67013877 131.54569054 411.97657967 C133.35301743 413.75473796 135.14447336 415.5474771 136.93266296 417.34484863 C137.46727148 417.8635287 138.00188 418.38220878 138.55268878 418.91660643 C141.95253244 422.37900887 141.95253244 422.37900887 142.15235329 424.99315166 C140.41918756 428.01149751 138.08359913 430.3352388 135.62968445 432.76472473 C135.06403851 433.33646177 134.49839257 433.90819882 133.91560584 434.49726123 C132.01424513 436.41529985 130.10229595 438.32241837 128.19018555 440.22973633 C126.82647677 441.60078247 125.46339348 442.972451 124.10089111 444.34469604 C120.39522894 448.07261377 116.67993895 451.79079298 112.96218848 455.50665116 C109.86293532 458.60578485 106.76803091 461.70924363 103.67301208 464.81260508 C96.37475718 472.13010729 89.06833976 479.43938986 81.75708008 486.74389648 C74.20418622 494.29014271 66.6661869 501.8510396 59.1351735 509.4191168 C52.67615444 515.90877258 46.20756989 522.38878415 39.73126441 528.86118907 C35.85998303 532.73039734 31.99261917 536.60333328 28.13458824 540.48575783 C24.50870947 544.13380245 20.87110104 547.76971885 17.22393799 551.39648056 C15.88442798 552.7325629 14.54920938 554.07296297 13.21854591 555.41785622 C11.40738893 557.24704455 9.58166943 559.0602948 7.75126648 560.87019348 C7.22275815 561.41121966 6.69424982 561.95224583 6.14972609 562.50966674 C2.6231148 565.95157916 2.6231148 565.95157916 -0.00195217 566.15556717 C-3.00193068 564.42053529 -5.30897899 562.09189319 -7.72003174 559.64073181 C-8.28697966 559.07634716 -8.85392759 558.51196251 -9.43805575 557.93047529 C-11.33993323 556.03354742 -13.23087581 554.12608023 -15.12207031 552.21850586 C-16.48160463 550.85812552 -17.8417995 549.49840504 -19.2026062 548.13929749 C-22.89908234 544.44368371 -26.58622205 540.73887891 -30.2717905 537.03239131 C-34.12349162 533.16196378 -37.9836637 529.30000405 -41.84295654 525.43714905 C-49.15162048 518.11915278 -56.45260208 510.79354127 -63.75087428 503.46518284 C-72.05928772 495.12326238 -80.37619941 486.78983699 -88.69384623 478.45712459 C-105.80538994 461.31420495 -122.9062 444.16061127 -140 427 C-144.00966694 428.60596295 -146.68426795 431.4245012 -149.65515137 434.44828796 C-150.21519348 435.01014905 -150.77523559 435.57201014 -151.35224867 436.15089732 C-153.22854413 438.03560958 -155.09758355 439.92735741 -156.96679688 441.8190918 C-158.31016626 443.17121006 -159.6540146 444.52285263 -160.99830627 445.87405396 C-163.89241098 448.78465207 -166.7835262 451.69817659 -169.67250061 454.61386681 C-174.23746117 459.22013979 -178.81160558 463.81721674 -183.38757324 468.41255188 C-196.39842389 481.48102804 -209.39920837 494.55946158 -222.38525391 507.65258789 C-229.55723729 514.88355143 -236.73806645 522.10560758 -243.9288125 529.31791431 C-248.48394716 533.88772879 -253.02775626 538.46842972 -257.56368256 543.05730665 C-260.38244369 545.90371581 -263.21153522 548.73967473 -266.04374504 551.57269669 C-267.35910486 552.89264303 -268.67013877 554.21691591 -269.97657967 555.54569054 C-271.75473796 557.35301743 -273.5474771 559.14447336 -275.34484863 560.93266296 C-275.8635287 561.46727148 -276.38220878 562.00188 -276.91660643 562.55268878 C-280.37844069 565.95197453 -280.37844069 565.95197453 -282.99357224 566.15403557 C-286.01563755 564.41583651 -288.33269033 562.0681223 -290.75799561 559.60276794 C-291.32902708 559.03429974 -291.90005856 558.46583154 -292.48839402 557.88013703 C-294.40409062 555.96939025 -296.30885336 554.04810231 -298.21386719 552.12670898 C-299.5832536 550.75647656 -300.95330055 549.38690398 -302.32395935 548.01794434 C-306.04729393 544.29547214 -309.76129245 540.56380823 -313.4737196 536.83046222 C-317.35344811 532.9320076 -321.24164728 529.0420205 -325.12896729 525.15113831 C-332.49075502 517.78001816 -339.84486063 510.40128251 -347.19625688 503.01980025 C-355.56512884 494.61742155 -363.94249878 486.22353769 -372.32060385 477.83036697 C-389.55656145 460.56303324 -406.78178563 443.28502525 -424 426 C-422.68921269 423.10654875 -421.28873627 421.03900969 -419.04572666 418.79732966 C-418.13163169 417.87649282 -418.13163169 417.87649282 -417.19907016 416.9370532 C-416.52729041 416.27052748 -415.85551066 415.60400176 -415.16337395 414.91727829 C-414.44857256 414.20016922 -413.73377118 413.48306015 -412.99730915 412.7442205 C-410.58252239 410.32410776 -408.16062232 407.91123949 -405.73873901 405.49822998 C-403.9959197 403.75453913 -402.25353969 402.01040911 -400.51156342 400.26587605 C-396.71374355 396.46450721 -392.91282181 392.66628008 -389.10916519 388.87075424 C-383.45326283 383.22690856 -377.80309061 377.57735251 -372.15409237 371.92659744 C-362.65199935 362.42187481 -353.1452527 352.92181968 -343.63586044 343.42440033 C-334.21809015 334.01845726 -324.80238471 324.61045511 -315.38943863 315.19968414 C-314.80453777 314.61492076 -314.21963691 314.03015738 -313.61701178 313.42767389 C-310.64670138 310.45804014 -307.67642791 307.48836945 -304.70616867 304.51868454 C-283.65853317 283.47525174 -262.60626282 262.43646137 -241.55126953 241.40039062 C-221.09449673 220.96198155 -200.63982195 200.52147651 -180.18798828 180.078125 C-179.55775974 179.44815951 -178.9275312 178.81819402 -178.27820482 178.16913867 C-171.94929042 171.84286127 -165.62041869 165.51654117 -159.29157823 159.1901898 C-146.39858177 146.302266 -133.50530046 133.41462718 -120.61184692 120.52716064 C-120.01900518 119.93459348 -119.42616343 119.34202631 -118.81535679 118.73150257 C-79.21500869 79.14956104 -39.60799975 39.57428465 0 0 Z " fill="#09784C" transform="translate(458,34)"/>
</svg>
